<svg width="21" height="21" viewBox="0 0 21 21" fill="none" xmlns="http://www.w3.org/2000/svg">
    <g clip-path="url(#clip0_20_538)">
        <path d="M3.92369 5.84501L1.22119 3.14334L2.40036 1.96417L5.10202 4.66667H17.8037C17.9336 4.66666 18.0617 4.69702 18.1777 4.75531C18.2938 4.81361 18.3947 4.89823 18.4722 5.00242C18.5498 5.10661 18.6019 5.22749 18.6244 5.35541C18.647 5.48333 18.6393 5.61475 18.602 5.73917L16.602 12.4058C16.5506 12.5776 16.4451 12.7281 16.3013 12.8352C16.1575 12.9422 15.983 13 15.8037 13H5.59036V14.6667H14.757V16.3333H4.75702C4.53601 16.3333 4.32405 16.2455 4.16777 16.0893C4.01149 15.933 3.92369 15.721 3.92369 15.5V5.84501ZM5.59036 6.33334V11.3333H15.1837L16.6837 6.33334H5.59036ZM5.17369 19.6667C4.84217 19.6667 4.52423 19.535 4.28981 19.3006C4.05539 19.0661 3.92369 18.7482 3.92369 18.4167C3.92369 18.0852 4.05539 17.7672 4.28981 17.5328C4.52423 17.2984 4.84217 17.1667 5.17369 17.1667C5.50521 17.1667 5.82315 17.2984 6.05757 17.5328C6.292 17.7672 6.42369 18.0852 6.42369 18.4167C6.42369 18.7482 6.292 19.0661 6.05757 19.3006C5.82315 19.535 5.50521 19.6667 5.17369 19.6667ZM15.1737 19.6667C14.8422 19.6667 14.5242 19.535 14.2898 19.3006C14.0554 19.0661 13.9237 18.7482 13.9237 18.4167C13.9237 18.0852 14.0554 17.7672 14.2898 17.5328C14.5242 17.2984 14.8422 17.1667 15.1737 17.1667C15.5052 17.1667 15.8232 17.2984 16.0576 17.5328C16.292 17.7672 16.4237 18.0852 16.4237 18.4167C16.4237 18.7482 16.292 19.0661 16.0576 19.3006C15.8232 19.535 15.5052 19.6667 15.1737 19.6667Z" fill="#3D3014"/>
    </g>
    <defs>
        <clipPath id="clip0_20_538">
            <rect width="20" height="20" fill="white" transform="translate(0.590332 0.5)"/>
        </clipPath>
    </defs>
</svg>
