<svg width="16" height="17" viewBox="0 0 16 17" fill="none" xmlns="http://www.w3.org/2000/svg">
    <g clip-path="url(#clip0_18_195)">
        <path d="M14.6666 14.0408H1.33331V12.7074H1.99998V8.06144C1.99998 4.73611 4.68665 2.04078 7.99998 2.04078C11.3133 2.04078 14 4.73611 14 8.06144V12.7074H14.6666V14.0408ZM3.33331 12.7074H12.6666V8.06144C12.6666 5.47278 10.5773 3.37411 7.99998 3.37411C5.42265 3.37411 3.33331 5.47278 3.33331 8.06144V12.7074ZM6.33331 14.7074H9.66665C9.66665 15.1495 9.49105 15.5734 9.17849 15.886C8.86593 16.1985 8.44201 16.3741 7.99998 16.3741C7.55795 16.3741 7.13403 16.1985 6.82147 15.886C6.50891 15.5734 6.33331 15.1495 6.33331 14.7074Z" fill="#EEBB4D"/>
    </g>
    <defs>
        <clipPath id="clip0_18_195">
            <rect width="16" height="16" fill="white" transform="translate(0 0.707443)"/>
        </clipPath>
    </defs>
</svg>
