<svg width="21" height="21" viewBox="0 0 21 21" fill="none" xmlns="http://www.w3.org/2000/svg">
    <g clip-path="url(#clip0_18_160)">
        <path d="M18 17.1667C18 17.3877 17.9122 17.5996 17.7559 17.7559C17.5996 17.9122 17.3877 18 17.1667 18H3.83333C3.61232 18 3.40036 17.9122 3.24408 17.7559C3.0878 17.5996 3 17.3877 3 17.1667V3.83333C3 3.61232 3.0878 3.40036 3.24408 3.24408C3.40036 3.0878 3.61232 3 3.83333 3H17.1667C17.3877 3 17.5996 3.0878 17.7559 3.24408C17.9122 3.40036 18 3.61232 18 3.83333V17.1667ZM9.66667 4.66667H4.66667V16.3333H9.66667V4.66667ZM16.3333 11.3333H11.3333V16.3333H16.3333V11.3333ZM16.3333 4.66667H11.3333V9.66667H16.3333V4.66667Z" fill="#3D3014"/>
    </g>
    <defs>
        <clipPath id="clip0_18_160">
            <rect width="20" height="20" fill="white" transform="translate(0.5 0.5)"/>
        </clipPath>
    </defs>
</svg>
