<svg width="40" height="41" viewBox="0 0 40 41" fill="none" xmlns="http://www.w3.org/2000/svg">
    <rect y="0.80555" width="40" height="40" rx="15" fill="#F9F3D0" fill-opacity="0.5"/>
    <g clip-path="url(#clip0_19_450)">
        <path d="M16.1133 24.8055C16.251 24.4152 16.5065 24.0772 16.8444 23.8381C17.1823 23.599 17.586 23.4706 18 23.4706C18.4139 23.4706 18.8177 23.599 19.1556 23.8381C19.4935 24.0772 19.7489 24.4152 19.8866 24.8055H26.6666V26.1389H19.8866C19.7489 26.5292 19.4935 26.8673 19.1556 27.1064C18.8177 27.3455 18.4139 27.4738 18 27.4738C17.586 27.4738 17.1823 27.3455 16.8444 27.1064C16.5065 26.8673 16.251 26.5292 16.1133 26.1389H13.3333V24.8055H16.1133ZM20.1133 20.1389C20.251 19.7485 20.5065 19.4105 20.8444 19.1714C21.1823 18.9323 21.586 18.8039 22 18.8039C22.4139 18.8039 22.8177 18.9323 23.1556 19.1714C23.4935 19.4105 23.7489 19.7485 23.8866 20.1389H26.6666V21.4722H23.8866C23.7489 21.8626 23.4935 22.2006 23.1556 22.4397C22.8177 22.6788 22.4139 22.8072 22 22.8072C21.586 22.8072 21.1823 22.6788 20.8444 22.4397C20.5065 22.2006 20.251 21.8626 20.1133 21.4722H13.3333V20.1389H20.1133ZM16.1133 15.4722C16.251 15.0819 16.5065 14.7438 16.8444 14.5047C17.1823 14.2656 17.586 14.1372 18 14.1372C18.4139 14.1372 18.8177 14.2656 19.1556 14.5047C19.4935 14.7438 19.7489 15.0819 19.8866 15.4722H26.6666V16.8055H19.8866C19.7489 17.1959 19.4935 17.5339 19.1556 17.773C18.8177 18.0121 18.4139 18.1405 18 18.1405C17.586 18.1405 17.1823 18.0121 16.8444 17.773C16.5065 17.5339 16.251 17.1959 16.1133 16.8055H13.3333V15.4722H16.1133ZM18 16.8055C18.1768 16.8055 18.3464 16.7353 18.4714 16.6103C18.5964 16.4853 18.6666 16.3157 18.6666 16.1389C18.6666 15.9621 18.5964 15.7925 18.4714 15.6675C18.3464 15.5425 18.1768 15.4722 18 15.4722C17.8232 15.4722 17.6536 15.5425 17.5286 15.6675C17.4036 15.7925 17.3333 15.9621 17.3333 16.1389C17.3333 16.3157 17.4036 16.4853 17.5286 16.6103C17.6536 16.7353 17.8232 16.8055 18 16.8055ZM22 21.4722C22.1768 21.4722 22.3464 21.402 22.4714 21.277C22.5964 21.1519 22.6666 20.9824 22.6666 20.8055C22.6666 20.6287 22.5964 20.4592 22.4714 20.3341C22.3464 20.2091 22.1768 20.1389 22 20.1389C21.8232 20.1389 21.6536 20.2091 21.5286 20.3341C21.4036 20.4592 21.3333 20.6287 21.3333 20.8055C21.3333 20.9824 21.4036 21.1519 21.5286 21.277C21.6536 21.402 21.8232 21.4722 22 21.4722ZM18 26.1389C18.1768 26.1389 18.3464 26.0686 18.4714 25.9436C18.5964 25.8186 18.6666 25.649 18.6666 25.4722C18.6666 25.2954 18.5964 25.1258 18.4714 25.0008C18.3464 24.8758 18.1768 24.8055 18 24.8055C17.8232 24.8055 17.6536 24.8758 17.5286 25.0008C17.4036 25.1258 17.3333 25.2954 17.3333 25.4722C17.3333 25.649 17.4036 25.8186 17.5286 25.9436C17.6536 26.0686 17.8232 26.1389 18 26.1389Z" fill="#EEBB4D"/>
    </g>
    <defs>
        <clipPath id="clip0_19_450">
            <rect width="16" height="16" fill="white" transform="translate(12 12.8055)"/>
        </clipPath>
    </defs>
</svg>
