<svg width="24" height="24" viewBox="0 0 24 24" fill="none" xmlns="http://www.w3.org/2000/svg">
    <path d="M15.75 23.25H13.25V20.75H15.75V23.25ZM13.25 14.5H10.75V20.75H13.25V14.5ZM23.25 12H20.75V17H23.25V12ZM20.75 9.5H18.25V12H20.75V9.5ZM5.75 12H3.25V14.5H5.75V12ZM3.25 9.5H0.75V12H3.25V9.5ZM12 3.25H14.5V0.75H12V3.25ZM2.625 2.625V6.375H6.375V2.625H2.625ZM7 8.25H2C1.3125 8.25 0.75 7.6875 0.75 7V2C0.75 1.3125 1.3125 0.75 2 0.75H7C7.6875 0.75 8.25 1.3125 8.25 2V7C8.25 7.6875 7.6875 8.25 7 8.25ZM2.625 17.625V21.375H6.375V17.625H2.625ZM7 23.25H2C1.3125 23.25 0.75 22.6875 0.75 22V17C0.75 16.3125 1.3125 15.75 2 15.75H7C7.6875 15.75 8.25 16.3125 8.25 17V22C8.25 22.6875 7.6875 23.25 7 23.25ZM17.625 2.625V6.375H21.375V2.625H17.625ZM22 8.25H17C16.3125 8.25 15.75 7.6875 15.75 7V2C15.75 1.3125 16.3125 0.75 17 0.75H22C22.6875 0.75 23.25 1.3125 23.25 2V7C23.25 7.6875 22.6875 8.25 22 8.25ZM20.75 20.75V17H15.75V19.5H18.25V23.25H23.25V20.75H20.75ZM18.25 12H13.25V14.5H18.25V12ZM13.25 9.5H5.75V12H8.25V14.5H10.75V12H13.25V9.5ZM14.5 8.25V5.75H12V3.25H9.5V8.25H14.5ZM5.4375 3.5625H3.5625V5.4375H5.4375V3.5625ZM5.4375 18.5625H3.5625V20.4375H5.4375V18.5625ZM20.4375 3.5625H18.5625V5.4375H20.4375V3.5625Z" fill="#D9D9D9"/>
</svg>
