<svg width="36" height="37" viewBox="0 0 36 37" fill="none" xmlns="http://www.w3.org/2000/svg">
    <circle cx="18" cy="18.43" r="18" fill="#000072"/>
    <path d="M20.1363 9.7914L21.1313 9.69189V9.69189L20.1363 9.7914ZM19.9839 8.97164L20.8727 8.5133L20.8727 8.51329L19.9839 8.97164ZM20.4311 11.2477L19.636 11.8541L19.636 11.8541L20.4311 11.2477ZM21.3597 11.6323L21.2263 10.6412H21.2263L21.3597 11.6323ZM22.5979 10.8111L23.2311 11.585V11.585L22.5979 10.8111ZM23.2852 10.3392L22.9808 9.38665V9.38665L23.2852 10.3392ZM23.9872 10.3742L23.5896 11.2917L23.5896 11.2917L23.9872 10.3742ZM24.6241 10.9121L23.917 11.6192L23.917 11.6192L24.6241 10.9121ZM25.5177 11.8057L26.2248 11.0986L26.2248 11.0986L25.5177 11.8057ZM26.0557 12.4427L25.1381 12.8403L25.1381 12.8403L26.0557 12.4427ZM26.0907 13.1446L25.1381 12.8403V12.8403L26.0907 13.1446ZM25.6188 13.8321L24.8447 13.1988L24.8379 13.2074L25.6188 13.8321ZM25.6187 13.8321L26.3927 14.4654L26.3996 14.4568L25.6187 13.8321ZM24.7974 15.0705L25.7885 15.2039V15.2038L24.7974 15.0705ZM25.1819 15.9989L24.5754 16.794V16.794L25.1819 15.9989ZM26.6385 16.2938L26.539 17.2889H26.539L26.6385 16.2938ZM27.4584 16.4462L27 17.335L27.4584 16.4462ZM27.9299 16.9673L27 17.335L27 17.335L27.9299 16.9673ZM27.93 19.8926L28.8599 20.2603L28.8599 20.2603L27.93 19.8926ZM27.4583 20.4138L27 19.525V19.525L27.4583 20.4138ZM26.6386 20.5661L26.5391 19.5711L26.5268 19.5723L26.5145 19.5739L26.6386 20.5661ZM26.6385 20.5661L26.738 21.5612L26.7503 21.5599L26.7626 21.5584L26.6385 20.5661ZM25.1824 20.8609L24.576 20.0657L24.576 20.0657L25.1824 20.8609ZM24.7977 21.7896L25.7888 21.6561L25.7888 21.6561L24.7977 21.7896ZM25.6188 23.0276L26.3997 22.4029L26.3928 22.3943L25.6188 23.0276ZM25.6188 23.0276L24.8379 23.6523L24.8449 23.6608L25.6188 23.0276ZM26.0906 23.7148L27.0432 23.4103L27.0432 23.4103L26.0906 23.7148ZM26.0556 24.4169L26.9731 24.8146L26.9731 24.8146L26.0556 24.4169ZM25.5178 25.0537L26.2249 25.7608L26.2249 25.7608L25.5178 25.0537ZM23.9872 26.4853L24.3849 27.4028H24.3849L23.9872 26.4853ZM23.2851 26.5203L23.5895 25.5678H23.5895L23.2851 26.5203ZM22.5979 26.0485L23.2311 25.2745L23.2226 25.2676L22.5979 26.0485ZM22.5978 26.0485L21.9646 26.8225L21.9731 26.8294L22.5978 26.0485ZM21.3598 25.2273L21.2263 26.2184L21.2263 26.2184L21.3598 25.2273ZM20.4311 25.612L21.2263 26.2184L21.2263 26.2184L20.4311 25.612ZM20.1363 27.0684L21.1314 27.1679V27.1679L20.1363 27.0684ZM19.9839 27.8884L19.0952 27.43L19.0952 27.43L19.9839 27.8884ZM19.4629 28.3599L19.8306 29.2899L19.4629 28.3599ZM16.5374 28.3599L16.9051 27.43H16.9051L16.5374 28.3599ZM16.0164 27.8884L16.9051 27.43L16.9051 27.43L16.0164 27.8884ZM15.864 27.0685L14.869 27.168L15.864 27.0685ZM15.569 25.6118L16.364 25.0052H16.364L15.569 25.6118ZM14.6408 25.2273L14.5075 24.2362H14.5075L14.6408 25.2273ZM13.4021 26.0488L12.7688 25.2748H12.7688L13.4021 26.0488ZM12.7144 26.5209L13.0187 27.4735L13.0187 27.4734L12.7144 26.5209ZM12.0127 26.4859L11.6152 27.4035H11.6152L12.0127 26.4859ZM11.3755 25.9477L12.0826 25.2406L12.0826 25.2406L11.3755 25.9477ZM10.4821 25.0543L9.77499 25.7614L9.77499 25.7615L10.4821 25.0543ZM9.94406 24.4172L10.8616 24.0197L10.8616 24.0197L9.94406 24.4172ZM9.90906 23.7154L8.95648 23.4111H8.95648L9.90906 23.7154ZM10.381 23.0279L9.60708 22.3946H9.60708L10.381 23.0279ZM11.2024 21.7895L10.2113 21.6561L10.2113 21.6561L11.2024 21.7895ZM10.8178 20.861L11.4243 20.066L11.4243 20.0659L10.8178 20.861ZM9.36141 20.5661L9.46091 19.5711H9.46091L9.36141 20.5661ZM8.54163 20.4138L8.08326 21.3025H8.08326L8.54163 20.4138ZM8.07004 19.8927L7.14008 20.2603L7.14008 20.2603L8.07004 19.8927ZM8.07007 16.9672L7.14014 16.5995L7.14014 16.5995L8.07007 16.9672ZM8.54156 16.4463L8.08311 15.5575L8.08311 15.5575L8.54156 16.4463ZM9.36151 16.2938V15.2938H9.31163L9.262 15.2988L9.36151 16.2938ZM9.36151 16.2938V17.2938H9.41139L9.46102 17.2889L9.36151 16.2938ZM10.8182 15.9989L10.2116 15.2038H10.2116L10.8182 15.9989ZM11.2027 15.0706L12.1938 14.9374V14.9374L11.2027 15.0706ZM10.3811 13.8318L9.60719 14.4651H9.60719L10.3811 13.8318ZM9.90898 13.144L10.8616 12.8399L10.8616 12.8399L9.90898 13.144ZM9.94397 12.4424L9.02635 12.045L9.02635 12.045L9.94397 12.4424ZM10.4822 11.8051L11.1893 12.5122L11.1893 12.5122L10.4822 11.8051ZM11.3754 10.9118L12.0825 11.619L12.0825 11.619L11.3754 10.9118ZM12.0127 10.3737L11.6152 9.45607L11.6152 9.45607L12.0127 10.3737ZM12.7144 10.3387L12.4102 11.2913L12.4102 11.2913L12.7144 10.3387ZM13.4022 10.8108L12.7689 11.5848L12.7689 11.5848L13.4022 10.8108ZM14.6407 11.6323L14.5073 12.6234H14.5073L14.6407 11.6323ZM15.5691 11.2477L14.774 10.6412V10.6412L15.5691 11.2477ZM15.864 9.79137L16.8591 9.89088L16.864 9.84125V9.79137H15.864ZM15.864 9.79137L14.869 9.69187L14.864 9.74149V9.79137H15.864ZM16.0164 8.97164L15.1276 8.51329L15.1276 8.51329L16.0164 8.97164ZM16.5375 8.50002L16.9051 9.42999L16.9051 9.42999L16.5375 8.50002ZM19.4628 8.50002L19.0952 9.42999L19.0952 9.42999L19.4628 8.50002ZM21.1313 9.69189C21.111 9.48829 21.0914 9.28693 21.0628 9.11682C21.0326 8.93687 20.983 8.7271 20.8727 8.5133L19.0952 9.42999C19.0722 9.38549 19.0771 9.36878 19.0904 9.44798C19.1053 9.537 19.1183 9.66087 19.1413 9.8909L21.1313 9.69189ZM21.2263 10.6412C21.2895 10.7241 21.2694 10.7608 21.2343 10.5658C21.2009 10.3803 21.174 10.119 21.1313 9.69189L19.1413 9.8909C19.1806 10.2845 19.2153 10.6388 19.2659 10.92C19.3148 11.1916 19.401 11.546 19.636 11.8541L21.2263 10.6412ZM21.2263 10.6412L21.2263 10.6412L19.636 11.8541C20.0719 12.4256 20.7808 12.7192 21.4931 12.6233L21.2263 10.6412ZM21.9646 10.0371C21.6324 10.3089 21.4287 10.4747 21.2739 10.5822C21.1112 10.6953 21.1229 10.6551 21.2263 10.6412L21.4931 12.6233C21.8771 12.5716 22.1887 12.382 22.4153 12.2245C22.6499 12.0615 22.925 11.8355 23.2311 11.585L21.9646 10.0371ZM22.9808 9.38665C22.7517 9.45987 22.5683 9.57311 22.4197 9.67897C22.2792 9.77906 22.123 9.90755 21.9646 10.0371L23.2311 11.585C23.41 11.4387 23.5067 11.3602 23.5802 11.3078C23.6456 11.2612 23.6372 11.2765 23.5896 11.2917L22.9808 9.38665ZM24.3849 9.45668C23.9407 9.26419 23.4419 9.23931 22.9808 9.38665L23.5896 11.2917V11.2917L24.3849 9.45668ZM25.3313 10.205C25.1866 10.0604 25.0439 9.91695 24.9141 9.80339C24.7768 9.68326 24.6056 9.55233 24.3849 9.45668L23.5896 11.2917C23.5436 11.2718 23.5368 11.2558 23.5972 11.3087C23.6652 11.3681 23.7536 11.4558 23.917 11.6192L25.3313 10.205ZM26.2248 11.0986L25.3313 10.205L23.917 11.6192L24.8106 12.5128L26.2248 11.0986ZM26.9733 12.0452C26.8776 11.8244 26.7467 11.6532 26.6265 11.5158C26.5129 11.386 26.3695 11.2433 26.2248 11.0986L24.8106 12.5128C24.9741 12.6763 25.0618 12.7647 25.1212 12.8326C25.1741 12.8931 25.158 12.8863 25.1381 12.8403L26.9733 12.0452ZM27.0433 13.449C27.1905 12.988 27.1657 12.4892 26.9733 12.0452L25.1381 12.8403V12.8403L27.0433 13.449ZM26.3927 14.4653C26.5223 14.307 26.6508 14.1507 26.7509 14.0102C26.8568 13.8616 26.9701 13.6781 27.0433 13.449L25.1381 12.8403C25.1534 12.7926 25.1686 12.7843 25.122 12.8497C25.0697 12.9232 24.9912 13.0199 24.8448 13.1989L26.3927 14.4653ZM26.3996 14.4568L26.3996 14.4568L24.8379 13.2074L24.8379 13.2074L26.3996 14.4568ZM25.7885 15.2038C25.7746 15.3072 25.7344 15.3189 25.8475 15.1562C25.9551 15.0014 26.1208 14.7976 26.3927 14.4654L24.8448 13.1989C24.5943 13.5051 24.3682 13.7802 24.2052 14.0148C24.0476 14.2415 23.858 14.5532 23.8063 14.9372L25.7885 15.2038ZM25.7885 15.2039L25.7885 15.2039L23.8063 14.9372C23.7105 15.6494 24.0041 16.3582 24.5754 16.794L25.7885 15.2039ZM26.738 15.2988C26.3108 15.2561 26.0494 15.2292 25.8639 15.1958C25.6689 15.1607 25.7055 15.1406 25.7885 15.2038L24.5754 16.794C24.8835 17.029 25.238 17.1153 25.5097 17.1642C25.7909 17.2148 26.1453 17.2495 26.539 17.2889L26.738 15.2988ZM27.9168 15.5575C27.703 15.4472 27.4932 15.3976 27.3132 15.3674C27.1431 15.3388 26.9416 15.3192 26.738 15.2988L26.539 17.2889C26.7691 17.3119 26.893 17.3248 26.982 17.3397C27.0612 17.353 27.0445 17.3579 27 17.335L27.9168 15.5575ZM28.8599 16.5996C28.6819 16.1496 28.3469 15.7793 27.9168 15.5575L27 17.335L27 17.335L28.8599 16.5996ZM29 17.7983C29 17.5936 29.0005 17.3913 28.989 17.2191C28.9769 17.037 28.9484 16.8233 28.8599 16.5996L27 17.335C26.9816 17.2884 26.9881 17.2723 26.9935 17.3524C26.9995 17.4425 27 17.567 27 17.7983H29ZM29 19.0618V17.7983H27V19.0618H29ZM28.8599 20.2603C28.9484 20.0366 28.9769 19.8229 28.989 19.6409C29.0005 19.4687 29 19.2664 29 19.0618H27C27 19.293 26.9995 19.4175 26.9935 19.5076C26.9881 19.5877 26.9816 19.5716 27 19.525L28.8599 20.2603ZM27.9167 21.3026C28.3469 21.0807 28.682 20.7104 28.8599 20.2603L27 19.525L27 19.525L27.9167 21.3026ZM26.7381 21.5612C26.9417 21.5408 27.143 21.5212 27.3132 21.4926C27.4931 21.4624 27.7029 21.4128 27.9167 21.3026L27 19.525C27.0445 19.5021 27.0612 19.5069 26.982 19.5202C26.893 19.5352 26.7691 19.5481 26.5391 19.5711L26.7381 21.5612ZM26.7626 21.5584L26.7626 21.5584L26.5145 19.5739L26.5145 19.5739L26.7626 21.5584ZM25.7888 21.6561C25.7058 21.7193 25.6692 21.6992 25.8642 21.6641C26.0497 21.6308 26.3109 21.6039 26.738 21.5612L26.539 19.5711C26.1455 19.6105 25.7912 19.6451 25.5101 19.6957C25.2385 19.7446 24.8841 19.8308 24.576 20.0657L25.7888 21.6561ZM25.7888 21.6561V21.6561L24.576 20.0657C24.0044 20.5016 23.7107 21.2107 23.8067 21.9231L25.7888 21.6561ZM26.3928 22.3943C26.121 22.0622 25.9553 21.8585 25.8478 21.7038C25.7347 21.5411 25.7749 21.5528 25.7888 21.6561L23.8067 21.9231C23.8584 22.3071 24.048 22.6186 24.2055 22.8452C24.3685 23.0798 24.5944 23.3547 24.8449 23.6608L26.3928 22.3943ZM26.3997 22.4029L26.3997 22.4029L24.838 23.6523L24.838 23.6523L26.3997 22.4029ZM27.0432 23.4103C26.9699 23.1812 26.8567 22.9979 26.7509 22.8493C26.6508 22.7089 26.5223 22.5527 26.3928 22.3944L24.8449 23.6608C24.9912 23.8397 25.0697 23.9364 25.122 24.0099C25.1686 24.0753 25.1533 24.0669 25.1381 24.0192L27.0432 23.4103ZM26.9731 24.8146C27.1657 24.3704 27.1906 23.8715 27.0432 23.4103L25.1381 24.0192L25.1381 24.0192L26.9731 24.8146ZM26.2249 25.7608C26.3695 25.6162 26.5129 25.4736 26.6265 25.3438C26.7466 25.2065 26.8775 25.0353 26.9731 24.8146L25.1381 24.0192C25.158 23.9733 25.174 23.9665 25.1212 24.0269C25.0618 24.0948 24.9741 24.1832 24.8107 24.3466L26.2249 25.7608ZM26.2249 25.7609L26.2249 25.7608L24.8107 24.3466L24.8107 24.3467L26.2249 25.7609ZM25.3312 26.6545L26.2249 25.7609L24.8107 24.3467L23.917 25.2403L25.3312 26.6545ZM24.3849 27.4028C24.6056 27.3072 24.7768 27.1763 24.9141 27.0562C25.0439 26.9426 25.1865 26.7992 25.3312 26.6545L23.917 25.2403C23.7536 25.4038 23.6651 25.4914 23.5972 25.5509C23.5368 25.6037 23.5436 25.5877 23.5895 25.5678L24.3849 27.4028ZM22.9807 27.4729C23.4418 27.6202 23.9407 27.5954 24.3849 27.4028L23.5895 25.5678L23.5895 25.5678L22.9807 27.4729ZM21.9646 26.8225C22.123 26.952 22.2792 27.0805 22.4196 27.1806C22.5682 27.2864 22.7516 27.3997 22.9807 27.4729L23.5895 25.5678C23.6372 25.583 23.6456 25.5983 23.5802 25.5517C23.5067 25.4993 23.41 25.4209 23.2311 25.2745L21.9646 26.8225ZM21.9731 26.8294L21.9732 26.8294L23.2226 25.2676L23.2225 25.2676L21.9731 26.8294ZM21.2263 26.2184C21.123 26.2045 21.1113 26.1643 21.274 26.2774C21.4287 26.3849 21.6324 26.5506 21.9646 26.8224L23.2311 25.2745C22.925 25.0241 22.65 24.7981 22.4154 24.6351C22.1888 24.4776 21.8772 24.288 21.4932 24.2363L21.2263 26.2184ZM21.2263 26.2184H21.2263L21.4932 24.2363C20.7809 24.1403 20.0719 24.434 19.636 25.0056L21.2263 26.2184ZM21.1314 27.1679C21.1741 26.7407 21.2009 26.4794 21.2343 26.2939C21.2694 26.0988 21.2895 26.1354 21.2263 26.2184L19.636 25.0056C19.401 25.3136 19.3148 25.6681 19.2659 25.9397C19.2153 26.2209 19.1806 26.5752 19.1413 26.9689L21.1314 27.1679ZM20.8726 28.3469C20.9829 28.133 21.0326 27.9232 21.0628 27.7432C21.0914 27.573 21.111 27.3716 21.1314 27.1679L19.1413 26.9689C19.1183 27.199 19.1054 27.3229 19.0904 27.412C19.0771 27.4912 19.0722 27.4745 19.0952 27.43L20.8726 28.3469ZM19.8306 29.2899C20.2806 29.1119 20.6508 28.7769 20.8726 28.3469L19.0952 27.43L19.0952 27.43L19.8306 29.2899ZM18.6319 29.43C18.8365 29.43 19.0389 29.4305 19.211 29.419C19.3932 29.4068 19.6069 29.3783 19.8306 29.2899L19.0952 27.43C19.1417 27.4116 19.1579 27.4181 19.0777 27.4235C18.9877 27.4295 18.8631 27.43 18.6319 27.43V29.43ZM17.3685 29.43H18.6319V27.43H17.3685V29.43ZM16.1697 29.2899C16.3934 29.3783 16.6072 29.4068 16.7893 29.419C16.9614 29.4305 17.1638 29.43 17.3685 29.43V27.43C17.1372 27.43 17.0127 27.4295 16.9226 27.4235C16.8424 27.4181 16.8586 27.4116 16.9051 27.43L16.1697 29.2899ZM15.1277 28.3469C15.3495 28.7769 15.7197 29.1119 16.1697 29.2899L16.9051 27.43H16.9051L15.1277 28.3469ZM14.869 27.168C14.8893 27.3716 14.909 27.5731 14.9375 27.7432C14.9677 27.9232 15.0174 28.133 15.1277 28.3469L16.9051 27.43C16.9281 27.4745 16.9232 27.4912 16.9099 27.412C16.895 27.323 16.882 27.1991 16.859 26.969L14.869 27.168ZM14.774 26.2184C14.7107 26.1354 14.7309 26.0987 14.766 26.2938C14.7994 26.4794 14.8262 26.7407 14.869 27.168L16.859 26.969C16.8197 26.5753 16.785 26.2209 16.7343 25.9396C16.6854 25.6679 16.5991 25.3133 16.364 25.0052L14.774 26.2184ZM14.774 26.2184L14.774 26.2184L16.364 25.0052C15.9282 24.434 15.2196 24.1405 14.5075 24.2362L14.774 26.2184ZM14.0353 26.8227C14.3677 26.5508 14.5715 26.385 14.7263 26.2774C14.8891 26.1643 14.8774 26.2045 14.774 26.2184L14.5075 24.2362C14.1234 24.2878 13.8117 24.4775 13.5849 24.6351C13.3503 24.7982 13.0751 25.0243 12.7688 25.2748L14.0353 26.8227ZM13.0187 27.4734C13.2479 27.4002 13.4314 27.287 13.58 27.181C13.7206 27.0809 13.8769 26.9524 14.0353 26.8227L12.7688 25.2748C12.5899 25.4213 12.4931 25.4998 12.4196 25.5522C12.3541 25.5988 12.3625 25.5835 12.4102 25.5683L13.0187 27.4734ZM11.6152 27.4035C12.0592 27.5958 12.5578 27.6206 13.0187 27.4735L12.4102 25.5682L12.4102 25.5683L11.6152 27.4035ZM10.6684 26.6548C10.8131 26.7996 10.9558 26.943 11.0857 27.0566C11.2231 27.1768 11.3944 27.3078 11.6152 27.4035L12.4102 25.5683C12.4562 25.5882 12.463 25.6042 12.4025 25.5513C12.3346 25.4919 12.2461 25.4041 12.0826 25.2406L10.6684 26.6548ZM9.77499 25.7615L10.6684 26.6548L12.0826 25.2406L11.1892 24.3472L9.77499 25.7615ZM9.02649 24.8148C9.12215 25.0356 9.2531 25.2068 9.37325 25.3442C9.48684 25.474 9.63028 25.6167 9.77499 25.7614L11.1892 24.3472C11.0257 24.1838 10.938 24.0953 10.8786 24.0274C10.8257 23.9669 10.8417 23.9737 10.8616 24.0197L9.02649 24.8148ZM8.95648 23.4111C8.80922 23.872 8.8341 24.3708 9.02649 24.8148L10.8616 24.0197V24.0197L8.95648 23.4111ZM9.60708 22.3946C9.47749 22.553 9.34896 22.7093 9.24885 22.8498C9.14296 22.9984 9.02969 23.1819 8.95648 23.4111L10.8616 24.0197C10.8464 24.0674 10.8311 24.0757 10.8777 24.0103C10.9301 23.9368 11.0086 23.8401 11.155 23.6611L9.60708 22.3946ZM10.2113 21.6561C10.2252 21.5527 10.2654 21.541 10.1523 21.7038C10.0447 21.8586 9.87896 22.0623 9.60708 22.3946L11.155 23.6611C11.4055 23.3549 11.6315 23.0798 11.7946 22.8452C11.9521 22.6185 12.1418 22.3069 12.1935 21.9228L10.2113 21.6561ZM10.2113 21.6561L12.1935 21.9228C12.2893 21.2106 11.9957 20.5018 11.4243 20.066L10.2113 21.6561ZM9.2619 21.5612C9.6891 21.6039 9.95038 21.6308 10.1359 21.6641C10.3309 21.6992 10.2942 21.7194 10.2113 21.6561L11.4243 20.0659C11.1162 19.8309 10.7617 19.7446 10.4901 19.6958C10.2089 19.6452 9.85454 19.6105 9.46091 19.5711L9.2619 21.5612ZM8.08326 21.3025C8.29707 21.4128 8.50685 21.4624 8.68681 21.4926C8.85693 21.5212 9.0583 21.5408 9.26191 21.5612L9.46091 19.5711C9.23087 19.5481 9.10701 19.5352 9.01798 19.5202C8.93879 19.5069 8.95549 19.5021 9 19.525L8.08326 21.3025ZM7.14008 20.2603C7.31802 20.7104 7.65312 21.0807 8.08326 21.3025L9 19.525H9L7.14008 20.2603ZM7 19.0618C7 19.2664 6.99948 19.4687 7.01098 19.6409C7.02314 19.8229 7.05163 20.0366 7.14008 20.2603L9 19.525C9.01841 19.5716 9.01188 19.5877 9.00653 19.5076C9.00052 19.4175 9 19.293 9 19.0618H7ZM7 17.7983V19.0618H9V17.7983H7ZM7.14014 16.5995C7.05165 16.8233 7.02315 17.037 7.01098 17.2191C6.99948 17.3913 7 17.5936 7 17.7983H9C9 17.5671 9.00052 17.4425 9.00654 17.3524C9.01189 17.2723 9.01842 17.2884 9 17.335L7.14014 16.5995ZM8.08311 15.5575C7.65309 15.7794 7.31807 16.1495 7.14014 16.5995L9 17.335L9 17.335L8.08311 15.5575ZM9.262 15.2988C9.05835 15.3192 8.85694 15.3388 8.68678 15.3674C8.50679 15.3976 8.29697 15.4472 8.08311 15.5575L9 17.335C8.95549 17.3579 8.93877 17.353 9.01798 17.3397C9.10703 17.3248 9.23092 17.3119 9.46101 17.2889L9.262 15.2988ZM9.36151 15.2938H9.36151V17.2938H9.36151V15.2938ZM10.2116 15.2038C10.2946 15.1406 10.3313 15.1607 10.1362 15.1958C9.95063 15.2292 9.6893 15.2561 9.26201 15.2988L9.46102 17.2889C9.85473 17.2495 10.2091 17.2148 10.4904 17.1642C10.7621 17.1153 11.1167 17.029 11.4248 16.7939L10.2116 15.2038ZM10.2116 15.2038L11.4248 16.7939C11.996 16.3581 12.2895 15.6494 12.1938 14.9374L10.2116 15.2038ZM9.60719 14.4651C9.87915 14.7975 10.045 15.0013 10.1526 15.1561C10.2657 15.319 10.2255 15.3072 10.2116 15.2038L12.1938 14.9374C12.1422 14.5532 11.9525 14.2415 11.7949 14.0148C11.6318 13.7801 11.4057 13.5049 11.1551 13.1986L9.60719 14.4651ZM8.95636 13.4482C9.02957 13.6775 9.14288 13.861 9.24881 14.0097C9.34895 14.1503 9.47754 14.3066 9.60719 14.4651L11.1551 13.1986C11.0086 13.0196 10.9301 12.9228 10.8777 12.8492C10.8311 12.7838 10.8464 12.7921 10.8616 12.8399L8.95636 13.4482ZM9.02635 12.045C8.83409 12.4889 8.80923 12.9874 8.95636 13.4482L10.8616 12.8399H10.8616L9.02635 12.045ZM9.77508 11.098C9.63032 11.2427 9.48682 11.3855 9.3732 11.5154C9.253 11.6528 9.12201 11.8241 9.02635 12.045L10.8616 12.8399C10.8417 12.8858 10.8256 12.8926 10.8785 12.8322C10.938 12.7642 11.0257 12.6757 11.1893 12.5122L9.77508 11.098ZM10.6683 10.2047L9.77508 11.098L11.1893 12.5122L12.0825 11.619L10.6683 10.2047ZM11.6152 9.45607C11.3944 9.55173 11.2231 9.68271 11.0857 9.8029C10.9558 9.91651 10.8131 10.06 10.6683 10.2047L12.0825 11.619C12.2461 11.4554 12.3345 11.3677 12.4025 11.3082C12.4629 11.2553 12.4561 11.2714 12.4102 11.2913L11.6152 9.45607ZM13.0186 9.38608C12.5577 9.23891 12.0591 9.26378 11.6152 9.45607L12.4102 11.2913L12.4102 11.2913L13.0186 9.38608ZM14.0354 10.0369C13.8769 9.90724 13.7206 9.77866 13.58 9.67852C13.4314 9.5726 13.2479 9.45929 13.0186 9.38608L12.4102 11.2913C12.3624 11.276 12.3541 11.2608 12.4195 11.3074C12.4931 11.3598 12.5899 11.4383 12.7689 11.5848L14.0354 10.0369ZM14.774 10.6412C14.8774 10.6552 14.8891 10.6953 14.7263 10.5822C14.5715 10.4746 14.3677 10.3088 14.0354 10.0369L12.7689 11.5848C13.0751 11.8354 13.3503 12.0614 13.5849 12.2245C13.8116 12.382 14.1232 12.5717 14.5073 12.6234L14.774 10.6412ZM14.774 10.6412V10.6412L14.5073 12.6234C15.2195 12.7192 15.9284 12.4256 16.3642 11.8542L14.774 10.6412ZM14.869 9.69187C14.8263 10.119 14.7994 10.3803 14.766 10.5658C14.7309 10.7608 14.7108 10.7242 14.774 10.6412L16.3642 11.8542C16.5992 11.5461 16.6855 11.1916 16.7344 10.92C16.785 10.6388 16.8197 10.2845 16.8591 9.89088L14.869 9.69187ZM14.864 9.79137V9.79137H16.864V9.79137H14.864ZM15.1276 8.51329C15.0173 8.7271 14.9677 8.93686 14.9375 9.1168C14.909 9.28692 14.8893 9.48827 14.869 9.69187L16.8591 9.89087C16.8821 9.66085 16.895 9.53699 16.9099 9.44797C16.9232 9.36878 16.9281 9.38549 16.9051 9.42999L15.1276 8.51329ZM16.1699 7.57006C15.7198 7.748 15.3494 8.08312 15.1276 8.51329L16.9051 9.42999V9.42999L16.1699 7.57006ZM17.3683 7.42999C17.1637 7.42999 16.9614 7.42948 16.7893 7.44097C16.6072 7.45313 16.3936 7.48162 16.1699 7.57006L16.9051 9.42999C16.8586 9.4484 16.8424 9.44187 16.9226 9.43652C17.0126 9.43051 17.1372 9.42999 17.3683 9.42999V7.42999ZM18.632 7.42999H17.3683V9.42999H18.632V7.42999ZM19.8304 7.57005C19.6067 7.48161 19.3931 7.45313 19.211 7.44097C19.0389 7.42948 18.8366 7.42999 18.632 7.42999V9.42999C18.8632 9.42999 18.9877 9.43051 19.0778 9.43652C19.1579 9.44187 19.1417 9.4484 19.0952 9.42999L19.8304 7.57005ZM20.8727 8.51329C20.6509 8.08312 20.2806 7.74799 19.8304 7.57005L19.0952 9.42999L19.0952 9.43L20.8727 8.51329ZM21.0001 18.43C21.0001 20.0868 19.6569 21.43 18.0001 21.43V23.43C20.7615 23.43 23.0001 21.1914 23.0001 18.43H21.0001ZM18.0001 15.43C19.6569 15.43 21.0001 16.7731 21.0001 18.43H23.0001C23.0001 15.6686 20.7615 13.43 18.0001 13.43V15.43ZM15.0001 18.43C15.0001 16.7731 16.3432 15.43 18.0001 15.43V13.43C15.2387 13.43 13.0001 15.6686 13.0001 18.43H15.0001ZM18.0001 21.43C16.3432 21.43 15.0001 20.0868 15.0001 18.43H13.0001C13.0001 21.1914 15.2387 23.43 18.0001 23.43V21.43Z" fill="#FDFDFD"/>
</svg>
