<svg width="109" height="108" viewBox="0 0 109 108" fill="none" xmlns="http://www.w3.org/2000/svg">
    <g filter="url(#filter0_d_582_5288)">
        <rect x="20.5" y="12" width="68" height="68" rx="13.8" fill="white"/>
        <path d="M69.1668 59.273H52.085C51.2375 59.273 50.5406 58.5762 50.5406 57.7287C50.5406 56.8812 51.2375 56.1843 52.085 56.1843H69.1668C70.0143 56.1843 70.7112 56.8812 70.7112 57.7287C70.7112 58.595 70.0143 59.273 69.1668 59.273Z" fill="#24A19C"/>
        <path d="M69.1668 47.4267H52.085C51.2375 47.4267 50.5406 46.7299 50.5406 45.8824C50.5406 45.0349 51.2375 44.3381 52.085 44.3381H69.1668C70.0143 44.3381 70.7112 45.0349 70.7112 45.8824C70.7112 46.7299 70.0143 47.4267 69.1668 47.4267Z" fill="#24A19C"/>
        <path d="M69.1668 35.5619H52.085C51.2375 35.5619 50.5406 34.8651 50.5406 34.0176C50.5406 33.1701 51.2375 32.4732 52.085 32.4732H69.1668C70.0143 32.4732 70.7112 33.1701 70.7112 34.0176C70.7112 34.8651 70.0143 35.5619 69.1668 35.5619Z" fill="#24A19C"/>
        <path d="M40.7473 38.1232C40.333 38.1232 39.9375 37.9537 39.655 37.6712L37.9411 35.9574C37.3385 35.3547 37.3385 34.3754 37.9411 33.7727C38.5438 33.17 39.5231 33.17 40.1258 33.7727L40.7473 34.3942L44.7776 30.3639C45.3803 29.7612 46.3596 29.7612 46.9623 30.3639C47.565 30.9665 47.565 31.9459 46.9623 32.5485L41.8396 37.6712C41.5383 37.9537 41.1616 38.1232 40.7473 38.1232Z" fill="#24A19C"/>
        <path d="M40.7473 49.9882C40.3518 49.9882 39.9563 49.8375 39.655 49.5362L37.9411 47.8224C37.3385 47.2197 37.3385 46.2404 37.9411 45.6377C38.5438 45.035 39.5231 45.035 40.1258 45.6377L40.7473 46.2592L44.7776 42.2289C45.3803 41.6262 46.3596 41.6262 46.9623 42.2289C47.565 42.8315 47.565 43.8109 46.9623 44.4135L41.8396 49.5362C41.5383 49.8375 41.1428 49.9882 40.7473 49.9882Z" fill="#24A19C"/>
        <path d="M40.7473 61.2882C40.3518 61.2882 39.9563 61.1375 39.655 60.8362L37.9411 59.1223C37.3385 58.5197 37.3385 57.5403 37.9411 56.9377C38.5438 56.335 39.5231 56.335 40.1258 56.9377L40.7473 57.5592L44.7776 53.5288C45.3803 52.9262 46.3596 52.9262 46.9623 53.5288C47.565 54.1315 47.565 55.1108 46.9623 55.7135L41.8396 60.8362C41.5383 61.1375 41.1428 61.2882 40.7473 61.2882Z" fill="#24A19C"/>
    </g>
    <defs>
        <filter id="filter0_d_582_5288" x="0.5" y="0" width="108" height="108" filterUnits="userSpaceOnUse" color-interpolation-filters="sRGB">
            <feFlood flood-opacity="0" result="BackgroundImageFix"/>
            <feColorMatrix in="SourceAlpha" type="matrix" values="0 0 0 0 0 0 0 0 0 0 0 0 0 0 0 0 0 0 127 0" result="hardAlpha"/>
            <feOffset dy="8"/>
            <feGaussianBlur stdDeviation="10"/>
            <feComposite in2="hardAlpha" operator="out"/>
            <feColorMatrix type="matrix" values="0 0 0 0 0.0925591 0 0 0 0 0.533529 0 0 0 0 0.51589 0 0 0 0.4 0"/>
            <feBlend mode="normal" in2="BackgroundImageFix" result="effect1_dropShadow_582_5288"/>
            <feBlend mode="normal" in="SourceGraphic" in2="effect1_dropShadow_582_5288" result="shape"/>
        </filter>
    </defs>
</svg>
