<svg width="24" height="24" viewBox="0 0 24 24" fill="none" xmlns="http://www.w3.org/2000/svg">
    <path d="M13.1716 3H9C7.11438 3 6.17157 3 5.58579 3.58579C5 4.17157 5 5.11438 5 7V17C5 18.8856 5 19.8284 5.58579 20.4142C6.17157 21 7.11438 21 9 21H15C16.8856 21 17.8284 21 18.4142 20.4142C19 19.8284 19 18.8856 19 17V8.82843C19 8.41968 19 8.2153 18.9239 8.03153C18.8478 7.84776 18.7032 7.70324 18.4142 7.41421L14.5858 3.58579C14.2968 3.29676 14.1522 3.15224 13.9685 3.07612C13.7847 3 13.5803 3 13.1716 3Z" stroke="#000072" stroke-width="2"/>
    <path d="M13 3V7C13 7.94281 13 8.41421 13.2929 8.70711C13.5858 9 14.0572 9 15 9H19" stroke="#000072" stroke-width="2"/>
    <mask id="path-3-outside-1_358_169" maskUnits="userSpaceOnUse" x="1" y="9" width="22" height="10" fill="black">
        <rect fill="white" x="1" y="9" width="22" height="10"/>
        <path d="M3.914 17V11.4H6.338C6.83933 11.4 7.27133 11.4827 7.634 11.648C7.99667 11.808 8.27667 12.04 8.474 12.344C8.67133 12.648 8.77 13.0107 8.77 13.432C8.77 13.848 8.67133 14.208 8.474 14.512C8.27667 14.816 7.99667 15.0507 7.634 15.216C7.27133 15.376 6.83933 15.456 6.338 15.456H4.634L5.21 14.872V17H3.914ZM5.21 15.016L4.634 14.4H6.266C6.666 14.4 6.96467 14.3147 7.162 14.144C7.35933 13.9733 7.458 13.736 7.458 13.432C7.458 13.1227 7.35933 12.8827 7.162 12.712C6.96467 12.5413 6.666 12.456 6.266 12.456H4.634L5.21 11.84V15.016ZM9.69525 17V11.4H12.2393C12.8473 11.4 13.3833 11.5173 13.8473 11.752C14.3113 11.9813 14.6739 12.304 14.9353 12.72C15.1966 13.136 15.3273 13.6293 15.3273 14.2C15.3273 14.7653 15.1966 15.2587 14.9353 15.68C14.6739 16.096 14.3113 16.4213 13.8473 16.656C13.3833 16.8853 12.8473 17 12.2393 17H9.69525ZM10.9913 15.936H12.1753C12.5486 15.936 12.8713 15.8667 13.1432 15.728C13.4206 15.584 13.6339 15.3813 13.7833 15.12C13.9379 14.8587 14.0153 14.552 14.0153 14.2C14.0153 13.8427 13.9379 13.536 13.7833 13.28C13.6339 13.0187 13.4206 12.8187 13.1432 12.68C12.8713 12.536 12.5486 12.464 12.1753 12.464H10.9913V15.936ZM17.5046 13.92H20.1926V14.96H17.5046V13.92ZM17.6006 17H16.3046V11.4H20.5366V12.44H17.6006V17Z"/>
    </mask>
    <path d="M3.914 17V11.4H6.338C6.83933 11.4 7.27133 11.4827 7.634 11.648C7.99667 11.808 8.27667 12.04 8.474 12.344C8.67133 12.648 8.77 13.0107 8.77 13.432C8.77 13.848 8.67133 14.208 8.474 14.512C8.27667 14.816 7.99667 15.0507 7.634 15.216C7.27133 15.376 6.83933 15.456 6.338 15.456H4.634L5.21 14.872V17H3.914ZM5.21 15.016L4.634 14.4H6.266C6.666 14.4 6.96467 14.3147 7.162 14.144C7.35933 13.9733 7.458 13.736 7.458 13.432C7.458 13.1227 7.35933 12.8827 7.162 12.712C6.96467 12.5413 6.666 12.456 6.266 12.456H4.634L5.21 11.84V15.016ZM9.69525 17V11.4H12.2393C12.8473 11.4 13.3833 11.5173 13.8473 11.752C14.3113 11.9813 14.6739 12.304 14.9353 12.72C15.1966 13.136 15.3273 13.6293 15.3273 14.2C15.3273 14.7653 15.1966 15.2587 14.9353 15.68C14.6739 16.096 14.3113 16.4213 13.8473 16.656C13.3833 16.8853 12.8473 17 12.2393 17H9.69525ZM10.9913 15.936H12.1753C12.5486 15.936 12.8713 15.8667 13.1432 15.728C13.4206 15.584 13.6339 15.3813 13.7833 15.12C13.9379 14.8587 14.0153 14.552 14.0153 14.2C14.0153 13.8427 13.9379 13.536 13.7833 13.28C13.6339 13.0187 13.4206 12.8187 13.1432 12.68C12.8713 12.536 12.5486 12.464 12.1753 12.464H10.9913V15.936ZM17.5046 13.92H20.1926V14.96H17.5046V13.92ZM17.6006 17H16.3046V11.4H20.5366V12.44H17.6006V17Z" fill="#000072"/>
    <path d="M3.914 17H1.914C1.914 18.1046 2.80943 19 3.914 19V17ZM3.914 11.4V9.4C2.80943 9.4 1.914 10.2954 1.914 11.4H3.914ZM7.634 11.648L6.80438 13.4678C6.81181 13.4712 6.81925 13.4745 6.82672 13.4778L7.634 11.648ZM8.474 12.344L6.79644 13.4329L6.79644 13.4329L8.474 12.344ZM7.634 15.216L8.44128 17.0458C8.44875 17.0425 8.4562 17.0392 8.46362 17.0358L7.634 15.216ZM4.634 15.456L3.21007 14.0516C2.64379 14.6257 2.47772 15.4838 2.78889 16.2277C3.10006 16.9717 3.82759 17.456 4.634 17.456V15.456ZM5.21 14.872H7.21C7.21 14.0606 6.71973 13.3295 5.96899 13.0216C5.21826 12.7137 4.35587 12.8899 3.78607 13.4676L5.21 14.872ZM5.21 17V19C6.31457 19 7.21 18.1046 7.21 17H5.21ZM5.21 15.016L3.74915 16.382C4.30999 16.9818 5.18046 17.1778 5.94427 16.8763C6.70808 16.5749 7.21 15.8372 7.21 15.016H5.21ZM4.634 14.4V12.4C3.83727 12.4 3.11653 12.8729 2.79934 13.6038C2.48214 14.3346 2.62899 15.184 3.17315 15.766L4.634 14.4ZM4.634 12.456L3.17315 11.09C2.62899 11.672 2.48214 12.5214 2.79934 13.2522C3.11653 13.9831 3.83727 14.456 4.634 14.456V12.456ZM5.21 11.84H7.21C7.21 11.0188 6.70808 10.2811 5.94427 9.97966C5.18046 9.67819 4.30999 9.87422 3.74915 10.474L5.21 11.84ZM5.914 17V11.4H1.914V17H5.914ZM3.914 13.4H6.338V9.4H3.914V13.4ZM6.338 13.4C6.6246 13.4 6.76022 13.4477 6.80438 13.4678L8.46362 9.82818C7.78245 9.51765 7.05407 9.4 6.338 9.4V13.4ZM6.82672 13.4778C6.85427 13.49 6.85426 13.4939 6.83996 13.482C6.83329 13.4765 6.82525 13.469 6.81691 13.4596C6.80857 13.4502 6.80169 13.441 6.79644 13.4329L10.1516 11.2551C9.72261 10.5942 9.1252 10.1199 8.44128 9.81816L6.82672 13.4778ZM6.79644 13.4329C6.78807 13.42 6.78105 13.4069 6.77558 13.3946C6.77014 13.3824 6.76732 13.3734 6.76615 13.369C6.76369 13.36 6.77 13.3776 6.77 13.432H10.77C10.77 12.6884 10.5918 11.9332 10.1516 11.2551L6.79644 13.4329ZM6.77 13.432C6.77 13.4815 6.76422 13.496 6.76713 13.4853C6.76852 13.4803 6.77146 13.4711 6.77679 13.4592C6.78214 13.4472 6.7888 13.4348 6.79644 13.4231L10.1516 15.6009C10.5891 14.9269 10.77 14.1759 10.77 13.432H6.77ZM6.79644 13.4231C6.80095 13.4161 6.80677 13.4083 6.81364 13.4006C6.8205 13.3928 6.82675 13.387 6.83133 13.3832C6.83584 13.3794 6.83713 13.3789 6.83367 13.381C6.83011 13.3832 6.82088 13.3887 6.80438 13.3962L8.46362 17.0358C9.13692 16.7289 9.72647 16.2558 10.1516 15.6009L6.79644 13.4231ZM6.82672 13.3862C6.77623 13.4084 6.63239 13.456 6.338 13.456V17.456C7.04628 17.456 7.76644 17.3436 8.44128 17.0458L6.82672 13.3862ZM6.338 13.456H4.634V17.456H6.338V13.456ZM6.05793 16.8604L6.63393 16.2764L3.78607 13.4676L3.21007 14.0516L6.05793 16.8604ZM3.21 14.872V17H7.21V14.872H3.21ZM5.21 15H3.914V19H5.21V15ZM6.67085 13.65L6.09485 13.034L3.17315 15.766L3.74915 16.382L6.67085 13.65ZM4.634 16.4H6.266V12.4H4.634V16.4ZM6.266 16.4C6.90072 16.4 7.75903 16.2719 8.4703 15.6567L5.8537 12.6313C6.01308 12.4934 6.16274 12.4352 6.24056 12.413C6.31264 12.3924 6.33058 12.4 6.266 12.4V16.4ZM8.4703 15.6567C9.18128 15.0418 9.458 14.2106 9.458 13.432H5.458C5.458 13.3678 5.4687 13.2351 5.53723 13.0702C5.60896 12.8977 5.72114 12.7459 5.8537 12.6313L8.4703 15.6567ZM9.458 13.432C9.458 12.6605 9.18932 11.8211 8.4703 11.1993L5.8537 14.2247C5.71679 14.1063 5.60465 13.9518 5.53422 13.7805C5.46726 13.6176 5.458 13.4891 5.458 13.432H9.458ZM8.4703 11.1993C7.75903 10.5841 6.90072 10.456 6.266 10.456V14.456C6.33058 14.456 6.31264 14.4636 6.24056 14.443C6.16274 14.4208 6.01308 14.3626 5.8537 14.2247L8.4703 11.1993ZM6.266 10.456H4.634V14.456H6.266V10.456ZM6.09485 13.822L6.67085 13.206L3.74915 10.474L3.17315 11.09L6.09485 13.822ZM3.21 11.84V15.016H7.21V11.84H3.21ZM9.69525 17H7.69525C7.69525 18.1046 8.59068 19 9.69525 19V17ZM9.69525 11.4V9.4C8.59068 9.4 7.69525 10.2954 7.69525 11.4H9.69525ZM13.8472 11.752L12.9446 13.5367C12.9501 13.5395 12.9556 13.5422 12.9611 13.545L13.8472 11.752ZM14.9353 12.72L13.2417 13.7839L14.9353 12.72ZM14.9353 15.68L16.6288 16.7439L16.6349 16.7342L14.9353 15.68ZM13.8472 16.656L14.7334 18.449C14.7389 18.4462 14.7444 18.4435 14.7499 18.4407L13.8472 16.656ZM10.9913 15.936H8.99125C8.99125 17.0406 9.88668 17.936 10.9913 17.936V15.936ZM13.1432 15.728L14.0516 17.5098C14.0561 17.5076 14.0605 17.5053 14.0649 17.503L13.1432 15.728ZM13.7833 15.12L12.0621 14.1014C12.0569 14.1101 12.0518 14.1189 12.0468 14.1277L13.7833 15.12ZM13.7833 13.28L12.0468 14.2723C12.0548 14.2864 12.063 14.3003 12.0714 14.3142L13.7833 13.28ZM13.1432 12.68L12.2075 14.4476C12.2212 14.4548 12.235 14.4619 12.2488 14.4689L13.1432 12.68ZM10.9913 12.464V10.464C9.88668 10.464 8.99125 11.3594 8.99125 12.464H10.9913ZM11.6952 17V11.4H7.69525V17H11.6952ZM9.69525 13.4H12.2393V9.4H9.69525V13.4ZM12.2393 13.4C12.5867 13.4 12.8042 13.4657 12.9446 13.5367L14.7499 9.96727C13.9623 9.56895 13.1078 9.4 12.2393 9.4V13.4ZM12.9611 13.545C13.1123 13.6197 13.1877 13.6979 13.2417 13.7839L16.6288 11.6561C16.1602 10.9101 15.5102 10.343 14.7334 9.95904L12.9611 13.545ZM13.2417 13.7839C13.2722 13.8325 13.3273 13.9438 13.3273 14.2H17.3273C17.3273 13.3149 17.121 12.4395 16.6288 11.6561L13.2417 13.7839ZM13.3273 14.2C13.3273 14.4463 13.2742 14.5636 13.2356 14.6258L16.6349 16.7342C17.1189 15.9537 17.3273 15.0844 17.3273 14.2H13.3273ZM13.2417 14.6161C13.1851 14.7062 13.1041 14.7906 12.9446 14.8713L14.7499 18.4407C15.5184 18.0521 16.1628 17.4858 16.6288 16.7439L13.2417 14.6161ZM12.9611 14.863C12.8169 14.9343 12.5933 15 12.2393 15V19C13.1012 19 13.9496 18.8363 14.7334 18.449L12.9611 14.863ZM12.2393 15H9.69525V19H12.2393V15ZM10.9913 17.936H12.1753V13.936H10.9913V17.936ZM12.1753 17.936C12.795 17.936 13.4424 17.8204 14.0516 17.5098L12.2349 13.9462C12.2653 13.9307 12.2825 13.9275 12.2771 13.9286C12.2705 13.9301 12.2388 13.936 12.1753 13.936V17.936ZM14.0649 17.503C14.6697 17.189 15.1721 16.7206 15.5197 16.1123L12.0468 14.1277C12.0666 14.0931 12.0959 14.054 12.1338 14.018C12.1712 13.9824 12.2042 13.9621 12.2216 13.953L14.0649 17.503ZM15.5044 16.1386C15.869 15.5227 16.0153 14.8526 16.0153 14.2H12.0153C12.0153 14.2294 12.0121 14.2283 12.018 14.205C12.0243 14.18 12.0377 14.1426 12.0621 14.1014L15.5044 16.1386ZM16.0153 14.2C16.0153 13.5495 15.8721 12.8698 15.4951 12.2458L12.0714 14.3142C12.0406 14.2633 12.0249 14.2186 12.018 14.191C12.0115 14.1654 12.0153 14.1653 12.0153 14.2H16.0153ZM15.5197 12.2877C15.1683 11.6728 14.6569 11.2007 14.0377 10.8911L12.2488 14.4689C12.225 14.4569 12.186 14.4331 12.1434 14.3931C12.1003 14.3527 12.0681 14.3096 12.0468 14.2723L15.5197 12.2877ZM14.079 10.9124C13.4635 10.5865 12.806 10.464 12.1753 10.464V14.464C12.2339 14.464 12.2603 14.4697 12.2617 14.47C12.2622 14.4701 12.2569 14.469 12.2469 14.4653C12.2369 14.4617 12.2233 14.456 12.2075 14.4476L14.079 10.9124ZM12.1753 10.464H10.9913V14.464H12.1753V10.464ZM8.99125 12.464V15.936H12.9913V12.464H8.99125ZM17.5046 13.92V11.92C16.4001 11.92 15.5046 12.8154 15.5046 13.92H17.5046ZM20.1926 13.92H22.1926C22.1926 12.8154 21.2972 11.92 20.1926 11.92V13.92ZM20.1926 14.96V16.96C21.2972 16.96 22.1926 16.0646 22.1926 14.96H20.1926ZM17.5046 14.96H15.5046C15.5046 16.0646 16.4001 16.96 17.5046 16.96V14.96ZM17.6006 17V19C18.7052 19 19.6006 18.1046 19.6006 17H17.6006ZM16.3046 17H14.3046C14.3046 18.1046 15.2001 19 16.3046 19V17ZM16.3046 11.4V9.4C15.2001 9.4 14.3046 10.2954 14.3046 11.4H16.3046ZM20.5366 11.4H22.5366C22.5366 10.2954 21.6412 9.4 20.5366 9.4V11.4ZM20.5366 12.44V14.44C21.6412 14.44 22.5366 13.5446 22.5366 12.44H20.5366ZM17.6006 12.44V10.44C16.4961 10.44 15.6006 11.3354 15.6006 12.44H17.6006ZM17.5046 15.92H20.1926V11.92H17.5046V15.92ZM18.1926 13.92V14.96H22.1926V13.92H18.1926ZM20.1926 12.96H17.5046V16.96H20.1926V12.96ZM19.5046 14.96V13.92H15.5046V14.96H19.5046ZM17.6006 15H16.3046V19H17.6006V15ZM18.3046 17V11.4H14.3046V17H18.3046ZM16.3046 13.4H20.5366V9.4H16.3046V13.4ZM18.5366 11.4V12.44H22.5366V11.4H18.5366ZM20.5366 10.44H17.6006V14.44H20.5366V10.44ZM15.6006 12.44V17H19.6006V12.44H15.6006Z" fill="#FDFDFD" mask="url(#path-3-outside-1_358_169)"/>
</svg>
