<svg width="28" height="28" viewBox="0 0 28 28" fill="none" xmlns="http://www.w3.org/2000/svg">
    <path fill-rule="evenodd" clip-rule="evenodd" d="M8.55183 2.3335H19.4368C23.4035 2.3335 25.6668 4.5735 25.6668 8.55183V19.4485C25.6668 23.4035 23.4152 25.6668 19.4485 25.6668H8.55183C4.5735 25.6668 2.3335 23.4035 2.3335 19.4485V8.55183C2.3335 4.5735 4.5735 2.3335 8.55183 2.3335ZM14.9568 14.9685H18.2701C18.8068 14.9569 19.2385 14.5252 19.2385 13.9885C19.2385 13.4519 18.8068 13.0202 18.2701 13.0202H14.9568V9.73021C14.9568 9.19354 14.5251 8.76187 13.9885 8.76187C13.4518 8.76187 13.0201 9.19354 13.0201 9.73021V13.0202H9.71846C9.46179 13.0202 9.21679 13.1252 9.03012 13.3002C8.85512 13.4869 8.75012 13.7307 8.75012 13.9885C8.75012 14.5252 9.18179 14.9569 9.71846 14.9685H13.0201V18.2702C13.0201 18.8069 13.4518 19.2385 13.9885 19.2385C14.5251 19.2385 14.9568 18.8069 14.9568 18.2702V14.9685Z" fill="#24A19C"/>
</svg>
