<svg width="21" height="21" viewBox="0 0 21 21" fill="none" xmlns="http://www.w3.org/2000/svg">
    <g clip-path="url(#clip0_18_166)">
        <path d="M16.986 18.8333H15.3193V17.1666C15.3193 16.5036 15.0559 15.8677 14.5871 15.3989C14.1182 14.93 13.4824 14.6666 12.8193 14.6666H7.81931C7.15627 14.6666 6.52039 14.93 6.05155 15.3989C5.58271 15.8677 5.31932 16.5036 5.31932 17.1666V18.8333H3.65265V17.1666C3.65265 16.0616 4.09164 15.0018 4.87304 14.2204C5.65444 13.439 6.71425 13 7.81931 13H12.8193C13.9244 13 14.9842 13.439 15.7656 14.2204C16.547 15.0018 16.986 16.0616 16.986 17.1666V18.8333ZM10.3193 11.3333C9.66271 11.3333 9.01253 11.204 8.4059 10.9527C7.79927 10.7014 7.24807 10.3331 6.78378 9.86885C6.31949 9.40455 5.95119 8.85336 5.69992 8.24673C5.44864 7.6401 5.31932 6.98992 5.31932 6.33331C5.31932 5.6767 5.44864 5.02652 5.69992 4.4199C5.95119 3.81327 6.31949 3.26207 6.78378 2.79778C7.24807 2.33349 7.79927 1.96519 8.4059 1.71392C9.01253 1.46264 9.66271 1.33331 10.3193 1.33331C11.6454 1.33331 12.9172 1.8601 13.8548 2.79778C14.7925 3.73546 15.3193 5.00723 15.3193 6.33331C15.3193 7.6594 14.7925 8.93116 13.8548 9.86885C12.9172 10.8065 11.6454 11.3333 10.3193 11.3333ZM10.3193 9.66665C11.2034 9.66665 12.0512 9.31546 12.6763 8.69034C13.3015 8.06521 13.6526 7.21737 13.6526 6.33331C13.6526 5.44926 13.3015 4.60141 12.6763 3.97629C12.0512 3.35117 11.2034 2.99998 10.3193 2.99998C9.43526 2.99998 8.58741 3.35117 7.96229 3.97629C7.33717 4.60141 6.98598 5.44926 6.98598 6.33331C6.98598 7.21737 7.33717 8.06521 7.96229 8.69034C8.58741 9.31546 9.43526 9.66665 10.3193 9.66665Z" fill="#3D3014"/>
    </g>
    <defs>
        <clipPath id="clip0_18_166">
            <rect width="20" height="20" fill="white" transform="translate(0.319336 0.5)"/>
        </clipPath>
    </defs>
</svg>
