<svg width="17" height="17" viewBox="0 0 17 17" fill="none" xmlns="http://www.w3.org/2000/svg">
    <path d="M6.74302 0H10.0764C11.8445 0 13.5402 0.702379 14.7904 1.95262C16.0406 3.20286 16.743 4.89856 16.743 6.66667C16.743 8.43478 16.0406 10.1305 14.7904 11.3807C13.5402 12.631 11.8445 13.3333 10.0764 13.3333V16.25C5.90969 14.5833 0.076355 12.0833 0.076355 6.66667C0.076355 4.89856 0.778734 3.20286 2.02898 1.95262C3.27922 0.702379 4.97491 0 6.74302 0ZM8.40969 11.6667H10.0764C10.733 11.6667 11.3831 11.5373 11.9898 11.2861C12.5964 11.0348 13.1476 10.6665 13.6119 10.2022C14.0762 9.73791 14.4445 9.18671 14.6958 8.58008C14.947 7.97346 15.0764 7.32328 15.0764 6.66667C15.0764 6.01006 14.947 5.35988 14.6958 4.75325C14.4445 4.14662 14.0762 3.59543 13.6119 3.13113C13.1476 2.66684 12.5964 2.29854 11.9898 2.04727C11.3831 1.796 10.733 1.66667 10.0764 1.66667H6.74302C5.41694 1.66667 4.14517 2.19345 3.20749 3.13113C2.26981 4.06881 1.74302 5.34058 1.74302 6.66667C1.74302 9.675 3.79469 11.6383 8.40969 13.7333V11.6667Z" fill="#3D3014"/>
</svg>
